<svg height="480pt" viewBox="0 0 480 480" width="480pt" xmlns="http://www.w3.org/2000/svg" 
xmlns:xlink="http://www.w3.org/1999/xlink"><linearGradient id="a"><stop offset="0" 
stop-color="#008A74"/><stop offset="1" stop-color="#1abc9c"/></linearGradient>
<linearGradient id="b"
 gradientUnits="userSpaceOnUse" x1="-8" x2="483.2" 
 xlink:href="#a" y1="440" y2="440"/>
 <linearGradient id="c" gradientUnits="userSpaceOnUse" x1="-8" x2="483.2" xlink:href="#a" y1="240" y2="240"/>
 <linearGradient id="d" gradientUnits="userSpaceOnUse" x1="-8" x2="483.2" xlink:href="#a" y1="224" y2="224"/>
 <linearGradient id="e" gradientUnits="userSpaceOnUse" x1="-8.003015" x2="483.196985" xlink:href="#a" y1="180.003877" y2="180.003877"/>
 <linearGradient id="f" gradientUnits="userSpaceOnUse" x1="-8.001618" x2="483.198382" xlink:href="#a" y1="268.007249" y2="268.007249"/>
 <linearGradient id="g" gradientUnits="userSpaceOnUse" x1="-8.000395" x2="483.199605" xlink:href="#a" y1="180.002792" y2="180.002792"/>
 <linearGradient id="h" gradientUnits="userSpaceOnUse" x1="-7.998999" x2="483.201001" xlink:href="#a" y1="268.006164" y2="268.006164"/>
 <linearGradient id="i" gradientUnits="userSpaceOnUse" x1="-8" x2="483.2" xlink:href="#a" y1="56" y2="56"/><g fill="url(#b)">
 <path d="m32 432h16v16h-16zm0 0"/><path d="m384 432h64v16h-64zm0 0"/><path d="m352 432h16v16h-16zm0 0"/></g>
 <path d="m472 0h-464c-4.417969 0-8 3.582031-8 8v464c0 4.417969 3.582031 8 8 8h464c4.417969 0 8-3.582031 8-8v-464c0-4.417969-3.582031-8-8-8zm-456 96h32v16h-32zm0 32h32v272h-32zm448 336h-448v-48h448zm-72-96h-112.878906c10.792968-10.507812 16.882812-24.933594 16.878906-40-.082031-15.875-5.746094-31.210938-16-43.328125v-52.671875c0-4.417969-3.582031-8-8-8h-56v-29.785156l22.855469-38.09375c.589843-1.308594.972656-2.699219 1.144531-4.121094v-24h176v272h-16v-24c0-4.417969-3.582031-8-8-8zm-174.128906-208-9.871094 16.449219-9.871094-16.449219zm-25.871094-16v-48h32v48zm21.34375 149.953125c1.691406-1.519531 2.65625-3.683594 2.65625-5.953125v-48h48v48c0 2.269531.964844 4.433594 2.65625 5.953125 8.578125 9.261719 13.34375 21.421875 13.34375 34.046875 0 22.089844-17.910156 40-40 40s-40-17.910156-40-40c0-12.625 4.765625-24.785156 13.34375-34.046875zm170.65625 90.046875v16h-288v-16zm-144-272v-16h176v16zm24-32h-192v-32h192zm-88 16v16h-112v-16zm0 32v24c.171875 1.421875.554688 2.8125 1.144531 4.121094l22.855469 38.09375v90.457031c-10.253906 12.117187-15.917969 27.453125-16 43.328125-.003906 15.066406 6.085938 29.492188 16.878906 40h-112.878906c-4.417969 0-8 3.582031-8 8v24h-16v-272zm288 272h-32v-272h32zm0-288h-32v-16h32zm0-32h-184v-40c0-4.417969-3.582031-8-8-8h-208c-4.417969 0-8 3.582031-8 8v40h-40v-64h448zm0 0" fill="url(#c)"/><path d="m136 216h32v16h-32zm0 0" fill="url(#d)"/><path d="m138.34375 173.660156 11.3125-11.3125 24.003906 24-11.3125 11.316406zm0 0" fill="url(#e)"/><path d="m138.34375 274.34375 24.003906-24 11.3125 11.3125-24 24.003906zm0 0" fill="url(#f)"/><path d="m304 216h32v16h-32zm0 0" fill="url(#d)"/><path d="m298.34375 186.34375 24.003906-24.003906 11.3125 11.316406-24 24zm0 0" fill="url(#g)"/><path d="m298.347656 261.660156 11.3125-11.3125 24.003906 24.003906-11.316406 11.3125zm0 0" fill="url(#h)"/><path d="m360 56c0-13.253906-10.746094-24-24-24s-24 10.746094-24 24 10.746094 24 24 24 24-10.746094 24-24zm-24 8c-4.417969 0-8-3.582031-8-8s3.582031-8 8-8 8 3.582031 8 8-3.582031 8-8 8zm0 0" fill="url(#i)"/><path d="m424 56c0-13.253906-10.746094-24-24-24s-24 10.746094-24 24 10.746094 24 24 24 24-10.746094 24-24zm-24 8c-4.417969 0-8-3.582031-8-8s3.582031-8 8-8 8 3.582031 8 8-3.582031 8-8 8zm0 0" fill="url(#i)"/></svg>