<svg height="511pt" viewBox="-19 1 511 511.99988" width="511pt" 
xmlns="http://www.w3.org/2000/svg" 
xmlns:xlink="http://www.w3.org/1999/xlink">
<linearGradient id="a" 
gradientUnits="userSpaceOnUse" x1=".49994" x2="472.49994" y1="255.999875" y2="255.999875">
<stop offset="0" 
stop-color="#008A74"/>
<stop offset="1" stop-color="#1abc9c"/>
</linearGradient><path d="m441.808594 414.734375v-58.734375c0-11.046875-8.953125-20-20-20h-48.019532v-150.425781l21.566407 21.566406c7.8125 7.8125 20.476562 7.8125 28.285156 0 7.8125-7.808594 7.8125-20.472656 0-28.28125l-173-173c-7.8125-7.8125-20.472656-7.8125-28.285156 0-7.015625 7.015625-165.464844 165.464844-173 173-7.808594 7.808594-7.808594 20.472656 0 28.28125 7.8125 7.8125 20.476562 7.8125 28.285156 0l21.570313-21.570313v150.429688h-48.019532c-11.046875 0-20 8.953125-20 20v58.734375c-18.03125 7.777344-30.691406 25.722656-30.691406 46.574219 0 27.949218 22.742188 50.691406 50.691406 50.691406 27.953125 0 50.691406-22.742188 50.691406-50.691406 0-20.851563-12.65625-38.796875-30.691406-46.574219v-38.734375h145.308594v38.734375c-18.035156 7.773437-30.691406 25.71875-30.691406 46.574219 0 27.949218 22.738281 50.691406 50.691406 50.691406s50.691406-22.742188 50.691406-50.691406c0-20.851563-12.660156-38.796875-30.691406-46.574219v-38.734375h145.308594v38.734375c-18.035156 7.773437-30.691406 25.71875-30.691406 46.574219 0 27.953125 22.738281 50.691406 50.691406 50.691406s50.691406-22.742188 50.691406-50.691406c0-20.851563-12.660156-38.800782-30.691406-46.574219zm-390.617188 57.265625c-5.894531 0-10.691406-4.796875-10.691406-10.691406 0-5.898438 4.796875-10.691406 10.691406-10.691406 5.898438 0 10.691406 4.792968 10.691406 10.691406 0 5.894531-4.792968 10.691406-10.691406 10.691406zm185.308594 0c-5.894531 0-10.691406-4.796875-10.691406-10.691406 0-5.898438 4.796875-10.691406 10.691406-10.691406s10.691406 4.792968 10.691406 10.691406c0 5.894531-4.796875 10.691406-10.691406 10.691406zm30-136h-60v-60h60zm67.289062 0h-27.289062v-80c0-11.046875-8.953125-20-20-20h-100c-11.046875 0-20 8.953125-20 20v80h-27.289062v-190.429688l97.289062-97.285156 97.289062 97.285156zm88.019532 136c-5.898438 0-10.691406-4.796875-10.691406-10.691406 0-5.898438 4.796874-10.691406 10.691406-10.691406 5.894531 0 10.691406 4.792968 10.691406 10.691406 0 5.894531-4.796875 10.691406-10.691406 10.691406zm0 0" fill="url(#a)"/></svg>